<svg width="40" height="40" viewBox="0 0 40 40" fill="none" xmlns="http://www.w3.org/2000/svg">
<g clip-path="url(#clip0)">
<path d="M16 29L28 20L16 11V29ZM20 9.00623e-07C16.0444 9.00623e-07 12.1776 1.17298 8.88859 3.37061C5.59961 5.56824 3.03616 8.69181 1.5224 12.3463C0.00865042 16.0009 -0.387416 20.0222 0.384288 23.9018C1.15599 27.7814 3.06081 31.3451 5.85786 34.1421C8.65491 36.9392 12.2186 38.844 16.0982 39.6157C19.9778 40.3874 23.9991 39.9913 27.6537 38.4776C31.3082 36.9638 34.4318 34.4004 36.6294 31.1114C38.827 27.8224 40 23.9556 40 20C40.0008 17.3733 39.484 14.7723 38.4792 12.3454C37.4744 9.91853 36.0012 7.71344 34.1439 5.85611C32.2866 3.99878 30.0815 2.52562 27.6546 1.5208C25.2277 0.51599 22.6267 -0.000787452 20 9.00623e-07ZM20 36C16.8355 36 13.7421 35.0616 11.1109 33.3035C8.47968 31.5454 6.42892 29.0466 5.21792 26.1229C4.00692 23.1993 3.69007 19.9823 4.30743 16.8786C4.92479 13.7749 6.44864 10.9239 8.68629 8.68629C10.9239 6.44865 13.7749 4.9248 16.8785 4.30744C19.9822 3.69007 23.1993 4.00693 26.1229 5.21793C29.0465 6.42893 31.5454 8.47969 33.3035 11.1109C35.0616 13.7421 36 16.8355 36 20C35.9944 24.2418 34.3069 28.3082 31.3076 31.3076C28.3082 34.3069 24.2418 35.9944 20 36Z" fill="#F6F6F6"/>
</g>
<defs>
<clipPath id="clip0">
<rect width="40" height="40" fill="white"/>
</clipPath>
</defs>
</svg>
