<svg width="32" height="32" viewBox="0 0 32 32" fill="none" xmlns="http://www.w3.org/2000/svg">
<path d="M16 18C17.1046 18 18 17.1046 18 16C18 14.8954 17.1046 14 16 14C14.8954 14 14 14.8954 14 16C14 17.1046 14.8954 18 16 18Z" fill="#688095"/>
<path d="M16 0C12.8355 0 9.74207 0.938384 7.11088 2.69649C4.4797 4.45459 2.42894 6.95345 1.21793 9.87706C0.0069325 12.8007 -0.309921 16.0177 0.307443 19.1214C0.924806 22.2251 2.44866 25.0761 4.6863 27.3137C6.92394 29.5513 9.77487 31.0752 12.8786 31.6926C15.9823 32.3099 19.1993 31.9931 22.1229 30.7821C25.0466 29.5711 27.5454 27.5203 29.3035 24.8891C31.0616 22.2579 32 19.1645 32 16C31.995 11.7581 30.3077 7.69134 27.3082 4.69185C24.3087 1.69235 20.2419 0.00502833 16 0ZM19.77 19.77L7.20001 24.8L12.23 12.23L24.794 7.2L19.77 19.77Z" fill="#C49D48"/>
</svg>
