<svg width="32" height="25" viewBox="0 0 32 25" fill="none" xmlns="http://www.w3.org/2000/svg">
<g clip-path="url(#clip0)">
<path d="M31 0.210687H0.999994C0.86658 0.202668 0.732983 0.223039 0.608023 0.270457C0.483063 0.317875 0.369583 0.39126 0.275075 0.485768C0.180567 0.580276 0.107182 0.693757 0.0597638 0.818717C0.0123458 0.943677 -0.00802585 1.07727 -6.20866e-06 1.21069V23.2107C-0.00802585 23.3441 0.0123458 23.4777 0.0597638 23.6027C0.107182 23.7276 0.180567 23.8411 0.275075 23.9356C0.369583 24.0301 0.483063 24.1035 0.608023 24.1509C0.732983 24.1983 0.86658 24.2187 0.999994 24.2107H31C31.1334 24.2187 31.267 24.1983 31.392 24.1509C31.5169 24.1035 31.6304 24.0301 31.7249 23.9356C31.8194 23.8411 31.8928 23.7276 31.9402 23.6027C31.9876 23.4777 32.008 23.3441 32 23.2107V1.21069C32.008 1.07727 31.9876 0.943677 31.9402 0.818717C31.8928 0.693757 31.8194 0.580276 31.7249 0.485768C31.6304 0.39126 31.5169 0.317875 31.392 0.270457C31.267 0.223039 31.1334 0.202668 31 0.210687ZM28.6 5.01069L16.6 13.0107C16.4176 13.1216 16.2125 13.1899 16 13.2107C15.7875 13.1899 15.5824 13.1216 15.4 13.0107L3.39999 5.01069C3.1998 4.84312 3.06863 4.60745 3.03171 4.34901C2.99479 4.09057 3.05473 3.82761 3.19999 3.61069C3.36756 3.4105 3.60323 3.27933 3.86167 3.24241C4.12011 3.20549 4.38308 3.26542 4.59999 3.41069L16 11.0107L27.4 3.41069C27.5104 3.33458 27.6352 3.28184 27.7667 3.25569C27.8982 3.22954 28.0336 3.23055 28.1647 3.25864C28.2958 3.28673 28.4198 3.34132 28.529 3.41906C28.6383 3.49679 28.7305 3.59603 28.8 3.71069C28.9413 3.91116 28.9994 4.1586 28.9621 4.40101C28.9248 4.64343 28.795 4.86196 28.6 5.01069Z" fill="#E2EAF0"/>
</g>
<defs>
<clipPath id="clip0">
<rect width="32" height="24" fill="white" transform="translate(0 0.210449)"/>
</clipPath>
</defs>
</svg>
