<svg width="20" height="15" viewBox="0 0 20 15" fill="none" xmlns="http://www.w3.org/2000/svg">
<path d="M17.264 2.897L10.02 7.727C9.9 7.787 9.779 7.847 9.658 7.847C9.538 7.847 9.417 7.787 9.296 7.727L2.052 2.897C1.811 2.717 1.751 2.354 1.932 2.052C2.112 1.811 2.475 1.751 2.777 1.932L9.658 6.519L16.539 1.932C16.841 1.751 17.203 1.811 17.384 2.112C17.4695 2.23292 17.5048 2.38231 17.4824 2.52872C17.46 2.67513 17.3817 2.80715 17.264 2.897ZM18.712 0H0.604C0.24 0 0 0.241 0 0.604V13.884C0 14.245 0.241 14.487 0.604 14.487H18.712C19.074 14.487 19.316 14.245 19.316 13.883V0.603C19.316 0.241 19.074 0 18.712 0Z" fill="#F6F6F6"/>
</svg>
