<svg width="16" height="16" viewBox="0 0 16 16" fill="none" xmlns="http://www.w3.org/2000/svg">
<path d="M11.982 7.70301C11.982 7.14095 11.8713 6.58439 11.6562 6.06512C11.4411 5.54585 11.1259 5.07402 10.7284 4.67659C10.331 4.27915 9.85916 3.96389 9.33989 3.7488C8.82062 3.53371 8.26406 3.42301 7.70201 3.42301V5.13501C8.38292 5.13554 9.03579 5.40626 9.51727 5.88774C9.99875 6.36922 10.2695 7.02209 10.27 7.70301H11.982ZM13.694 7.70301H15.405C15.405 5.66022 14.5936 3.70108 13.1492 2.25652C11.7048 0.811951 9.74579 0.000270489 7.70301 5.29462e-06V1.71201C9.29149 1.71254 10.8148 2.34379 11.938 3.46702C13.0612 4.59025 13.6925 6.11352 13.693 7.70201L13.694 7.70301ZM14.549 10.698C13.5112 10.6987 12.4799 10.534 11.494 10.21C11.3438 10.1619 11.1833 10.156 11.03 10.193C10.8768 10.2301 10.7366 10.3086 10.625 10.42L8.74201 12.307C6.31447 11.0704 4.3403 9.09767 3.10201 6.67101L4.98501 4.78401C5.09622 4.67248 5.17463 4.53253 5.21167 4.37944C5.24871 4.22636 5.24294 4.06603 5.19501 3.91601C4.87092 2.92838 4.70619 1.89544 4.70701 0.856005C4.7074 0.743483 4.68553 0.631994 4.64265 0.52796C4.59978 0.423926 4.53674 0.329404 4.45717 0.249838C4.37761 0.170272 4.28308 0.107235 4.17905 0.0643569C4.07502 0.0214793 3.96353 -0.000391148 3.85101 5.29462e-06H0.856005C0.743483 -0.000391148 0.631994 0.0214793 0.52796 0.0643569C0.423926 0.107235 0.329404 0.170272 0.249838 0.249838C0.170272 0.329404 0.107235 0.423926 0.0643569 0.52796C0.0214793 0.631994 -0.000391148 0.743483 5.29462e-06 0.856005C5.29462e-06 8.89201 6.51301 15.406 14.55 15.406C15.024 15.406 15.405 15.024 15.405 14.549V11.554C15.4054 11.4415 15.3835 11.33 15.3407 11.226C15.2978 11.1219 15.2347 11.0274 15.1552 10.9478C15.0756 10.8683 14.9811 10.8052 14.8771 10.7624C14.773 10.7195 14.6615 10.6976 14.549 10.698Z" fill="#F6F6F6"/>
</svg>
